<svg xmlns="http://www.w3.org/2000/svg" width="101" height="101" viewBox="0 0 101 101" fill="none"><rect x="2.44815" y="1.73136" width="96.9894" height="96.9894" rx="48.4947" fill="#3328BF"></rect><rect x="2.44815" y="1.73136" width="96.9894" height="96.9894" rx="48.4947" stroke="#3328BF" stroke-width="3.01056"></rect><path d="M50.9428 68.9762C46.8803 68.9762 43.4341 67.5613 40.6043 64.7314C37.7744 61.9016 36.3595 58.4554 36.3595 54.3929C36.3595 51.129 37.323 48.2036 39.2501 45.6168C41.1772 43.03 43.7032 41.2852 46.8282 40.3825C45.6824 40.1047 44.6841 39.6099 43.8335 38.8981C42.9828 38.1863 42.297 37.3269 41.7762 36.32C41.2553 35.313 40.8907 34.2193 40.6824 33.0387C40.4741 31.8582 40.4394 30.6602 40.5782 29.445C42.0019 29.2713 43.356 29.3582 44.6407 29.7054C45.9255 30.0526 47.0887 30.6082 48.1303 31.372C49.172 32.1359 50.0314 33.0561 50.7085 34.1325C51.3855 35.2088 51.7935 36.4241 51.9324 37.7783C52.3838 36.7019 52.9307 35.6863 53.573 34.7314C54.2154 33.7766 54.9359 32.8998 55.7345 32.1012C56.1164 31.7193 56.6026 31.5283 57.1928 31.5283C57.7831 31.5283 58.2692 31.7193 58.6512 32.1012C59.0331 32.4832 59.2241 32.9693 59.2241 33.5595C59.2241 34.1498 59.0331 34.6359 58.6512 35.0179C57.8873 35.7818 57.2102 36.6238 56.6199 37.5439C56.0296 38.4641 55.5956 39.445 55.3178 40.4866C58.3734 41.4588 60.8387 43.221 62.7137 45.7731C64.5887 48.3252 65.5262 51.1984 65.5262 54.3929C65.5262 58.4554 64.1112 61.9016 61.2814 64.7314C58.4515 67.5613 55.0053 68.9762 50.9428 68.9762Z" fill="white"></path></svg>