<svg xmlns="http://www.w3.org/2000/svg" width="73" height="33" viewBox="0 0 73 33" fill="none"><path fill-rule="evenodd" clip-rule="evenodd" d="M40.1636 0.707082C40.2286 0.226563 40.839 0.0512378 41.1442 0.434355L45.3974 5.83046C45.7026 6.21358 45.3909 6.77202 44.9039 6.72007L42.274 6.42786C42.2091 6.42137 42.1442 6.44085 42.0922 6.4863L40.1636 8.11617C39.7805 8.44085 39.1961 8.12267 39.261 7.62267M39.261 7.62267L40.1636 0.707082Z" fill="#3328BF"></path><path d="M48.0208 7.69413H49.6442V8.34348H48.0208V9.96686H47.3715V8.34348H45.7481V7.69413H47.3715V6.07076H48.0208V7.69413Z" fill="#3328BF"></path><path fill-rule="evenodd" clip-rule="evenodd" d="M37.2481 14.9734C36.8585 15.902 36.6572 16.9409 36.6572 18.1033C36.6572 20.3176 37.3715 22.1163 38.8066 23.5124C40.2611 24.9085 42.0338 25.6033 44.1248 25.6033C46.2157 25.6033 47.9754 24.9085 49.4105 23.5124C50.865 22.1163 51.5923 20.3176 51.5923 18.1033C51.5923 15.889 50.865 14.0968 49.4105 12.7266C47.9754 11.3565 46.2157 10.6682 44.1248 10.6682C42.5468 10.6682 41.1442 11.0578 39.9299 11.8435L39.2092 15.6227L38.4624 15.2851C38.1248 15.1357 37.7222 15.0253 37.2481 14.9734ZM44.1248 21.9409C43.0598 21.9409 42.1702 21.5903 41.4494 20.8955C40.7351 20.1812 40.3715 19.2461 40.3715 18.0968C40.3715 16.9474 40.7287 16.0903 41.4494 15.3955C42.1637 14.7007 43.0598 14.35 44.1248 14.35C45.1897 14.35 46.0793 14.7007 46.8001 15.3955C47.5144 16.0903 47.878 16.9929 47.878 18.0968C47.878 19.2007 47.5209 20.1747 46.8001 20.8955C46.0858 21.5903 45.1897 21.9409 44.1248 21.9409Z" fill="#3328BF"></path><path d="M69.7157 10.6422V5.47339H65.9429V10.6682H65.2286V14.1033H65.9429V25.6033H69.7157V14.1033H72.8001V10.6682L69.7157 10.6422Z" fill="#0D0D0D"></path><path d="M51.1377 22.389C51.878 21.1552 52.2416 19.7201 52.2416 18.1033C52.2416 16.1487 51.7027 14.4604 50.6183 13.0838V10.6682H54.4494V18.6552C54.4494 19.7591 54.7222 20.5773 55.2611 21.1162C55.8001 21.6357 56.4559 21.8955 57.2222 21.8955C58.1183 21.8955 58.865 21.6227 59.4689 21.0838C60.0728 20.5253 60.3715 19.6617 60.3715 18.4994V10.6682H64.1767V25.6033H60.3715V23.2331C59.9754 23.9799 59.3975 24.5643 58.6248 24.9799C57.878 25.3955 57.1183 25.6033 56.352 25.6033C54.5858 25.6033 53.1832 25.0643 52.1442 23.9799C51.7222 23.5318 51.3845 22.9994 51.1377 22.389Z" fill="#0D0D0D"></path><path d="M29.0663 23.5318V25.6033H32.8715V20.4604C32.8715 16.3435 34.0858 14.2916 36.5209 14.2916C37.391 14.2916 38.1312 14.4279 38.7351 14.6942L39.391 11.2656C38.7286 10.915 37.9235 10.7331 36.9884 10.7331C36.0533 10.7331 35.2741 11.0448 34.5273 11.6682C33.7806 12.2916 33.2286 13.2266 32.878 14.4734V10.6682H29.0728V13.1487C30.1637 14.5708 30.6962 16.3046 30.6962 18.3111C30.6962 20.3175 30.1637 22.1033 29.0728 23.5383L29.0663 23.5318Z" fill="#0D0D0D"></path><path fill-rule="evenodd" clip-rule="evenodd" d="M14.7611 23.9604V32.2266H18.5014V23.402C18.8715 24.0968 19.4624 24.6357 20.2806 25.0188C21.1183 25.4085 22.0209 25.5968 22.9819 25.5968C24.9235 25.5968 26.5728 24.9149 27.9235 23.5513C29.2936 22.1682 29.9819 20.363 29.9819 18.1487C29.9819 15.9344 29.2936 14.1877 27.9235 12.8046C26.5533 11.4214 24.904 10.7266 22.9819 10.7266C22.0209 10.7266 21.1183 10.9279 20.2806 11.337C19.4624 11.7266 18.8715 12.2656 18.5014 12.9539V10.6617H14.7611V14.1877C15.1118 14.4734 15.417 14.7851 15.6832 15.1227C16.6572 16.3825 17.0923 17.8046 16.9819 19.363C16.8975 21.2396 16.1507 22.7851 14.7676 23.9539L14.7611 23.9604ZM19.6702 21.0188C18.9364 20.324 18.5663 19.389 18.5663 18.2072C18.5663 17.0253 18.9364 16.1098 19.6702 15.3955C20.404 14.6617 21.3066 14.2981 22.3715 14.2981C23.4364 14.2981 24.3066 14.6617 25.0403 15.3955C25.7741 16.1292 26.1442 17.0643 26.1442 18.2072C26.1442 19.35 25.7741 20.2721 25.0403 20.9864C24.326 21.7007 23.4364 22.0578 22.3715 22.0578C21.3066 22.0578 20.4299 21.7137 19.6702 21.0188Z" fill="#0D0D0D"></path><path d="M0.942932 18.9864H4.92995C4.96891 19.8175 5.32605 20.5318 5.98839 21.1357C6.65072 21.7201 7.53384 22.0059 8.63774 22.0059C9.6767 22.0059 10.5209 21.7656 11.1637 21.2916C11.8066 20.7916 12.1507 20.1682 12.1897 19.4214C12.2286 18.7136 12.0014 18.1227 11.5014 17.6422C11.0209 17.1617 10.2676 16.7786 9.22865 16.4864L6.5793 15.7981C2.96891 14.7461 1.16371 12.7526 1.16371 9.82404C1.16371 7.97339 1.85852 6.4669 3.25462 5.30456C4.6702 4.12274 6.38449 3.52534 8.39748 3.52534C10.4105 3.52534 12.1767 4.11625 13.5079 5.30456C14.8585 6.4669 15.5338 8.03833 15.5338 10.0124H11.5468C11.5468 9.1617 11.2546 8.48638 10.6767 7.98638C10.1183 7.4669 9.33904 7.20716 8.33904 7.20716C7.42345 7.20716 6.65722 7.44742 6.03384 7.92144C5.42995 8.37599 5.13124 8.97989 5.13124 9.72664C5.13124 10.9085 5.98189 11.7331 7.68969 12.1877L10.339 12.9669C12.5598 13.5708 14.1183 14.4539 15.0144 15.6162C15.9105 16.7786 16.3001 18.0773 16.1962 19.5124C16.1118 21.3825 15.3455 22.8695 13.891 23.9669C12.4559 25.0448 10.7092 25.5903 8.65722 25.5903C6.39098 25.5903 4.54033 24.9539 3.11176 23.6877C1.68319 22.4214 0.942932 20.8565 0.942932 18.9864Z" fill="#0D0D0D"></path></svg>