<svg xmlns="http://www.w3.org/2000/svg" width="101" height="101" viewBox="0 0 101 101" fill="none"><rect x="2.44821" y="1.73136" width="96.9894" height="96.9894" rx="48.4947" fill="#3328BF"></rect><rect x="2.44821" y="1.73136" width="96.9894" height="96.9894" rx="48.4947" stroke="#3328BF" stroke-width="3.01056"></rect><path d="M40.6304 42.8302L34.6929 48.7677C34.311 49.1497 33.8335 49.3493 33.2606 49.3667C32.6877 49.384 32.1929 49.1844 31.7762 48.7677C31.3943 48.3858 31.1946 47.9083 31.1773 47.3354C31.1599 46.7625 31.3422 46.2677 31.7242 45.8511L33.2346 44.2886L31.7762 42.8302C31.3596 42.4136 31.1512 41.9274 31.1512 41.3719C31.1512 40.8163 31.3596 40.3302 31.7762 39.9136L34.6929 36.9969L33.1825 35.4344C32.8006 35.0524 32.6096 34.575 32.6096 34.0021C32.6096 33.4292 32.8179 32.9344 33.2346 32.5177C33.6165 32.1358 34.094 31.9361 34.6669 31.9188C35.2398 31.9014 35.7346 32.0837 36.1512 32.4656L37.7137 33.9761L40.6304 31.0594C41.0471 30.6427 41.5332 30.4344 42.0887 30.4344C42.6443 30.4344 43.1304 30.6427 43.5471 31.0594L45.0054 32.5177L46.5679 31.0073C46.9499 30.6254 47.4273 30.4344 48.0002 30.4344C48.5731 30.4344 49.0679 30.6427 49.4846 31.0594C49.8665 31.4413 50.0575 31.9274 50.0575 32.5177C50.0575 33.108 49.8665 33.5941 49.4846 33.9761L43.5471 39.9136L61.2554 57.6219L67.1929 51.6844C67.5749 51.3024 68.0523 51.1028 68.6252 51.0854C69.1981 51.0681 69.6929 51.2677 70.1096 51.6844C70.4915 52.0663 70.6912 52.5438 70.7085 53.1167C70.7259 53.6896 70.5436 54.1844 70.1617 54.6011L68.6512 56.1636L70.1096 57.6219C70.5262 58.0386 70.7346 58.5247 70.7346 59.0802C70.7346 59.6358 70.5262 60.1219 70.1096 60.5386L67.1929 63.4552L68.7033 65.0177C69.0853 65.3997 69.2762 65.8771 69.2762 66.45C69.2762 67.0229 69.0679 67.5177 68.6512 67.9344C68.2693 68.3163 67.7919 68.516 67.219 68.5333C66.646 68.5507 66.1512 68.3684 65.7346 67.9865L64.1721 66.4761L61.2554 69.3927C60.8387 69.8094 60.3526 70.0177 59.7971 70.0177C59.2415 70.0177 58.7554 69.8094 58.3387 69.3927L56.8804 67.9344L55.3179 69.4448C54.936 69.8267 54.4585 70.0177 53.8856 70.0177C53.3127 70.0177 52.8179 69.8094 52.4012 69.3927C52.0193 69.0108 51.8283 68.5247 51.8283 67.9344C51.8283 67.3441 52.0193 66.858 52.4012 66.4761L58.3387 60.5386L40.6304 42.8302Z" fill="white"></path></svg>