<svg xmlns="http://www.w3.org/2000/svg" width="37" height="37" viewBox="0 0 37 37" fill="none"><rect x="1.35202" y="0.636142" width="35.1818" height="35.1818" rx="17.5909" stroke="#0D0D0D" stroke-width="0.818182"></rect><path d="M10.7611 12.0906L17.0076 16.8077L17.0097 16.8094C17.7032 17.318 18.0502 17.5725 18.4303 17.6708C18.7663 17.7577 19.1194 17.7577 19.4553 17.6708C19.8357 17.5724 20.1837 17.3172 20.8785 16.8077C20.8785 16.8077 24.8851 13.733 27.1248 12.0906M9.7384 22.1135V14.3408C9.7384 13.1952 9.7384 12.622 9.96134 12.1845C10.1574 11.7996 10.4701 11.4869 10.855 11.2908C11.2926 11.0679 11.8658 11.0679 13.0113 11.0679H24.875C26.0205 11.0679 26.5925 11.0679 27.0301 11.2908C27.4149 11.4869 27.7287 11.7996 27.9248 12.1845C28.1475 12.6216 28.1475 13.1941 28.1475 14.3374V22.117C28.1475 23.2603 28.1475 23.832 27.9248 24.2691C27.7287 24.654 27.4149 24.9672 27.0301 25.1633C26.5929 25.3861 26.0212 25.3861 24.8779 25.3861H13.008C11.8646 25.3861 11.2921 25.3861 10.855 25.1633C10.4701 24.9672 10.1574 24.654 9.96134 24.2691C9.7384 23.8316 9.7384 23.2591 9.7384 22.1135Z" stroke="#0D0D0D" stroke-width="1.63636" stroke-linecap="round" stroke-linejoin="round"></path></svg>