<svg xmlns="http://www.w3.org/2000/svg" width="73" height="33" viewBox="0 0 73 33" fill="none"><path fill-rule="evenodd" clip-rule="evenodd" d="M40.1636 0.70757C40.2286 0.227051 40.839 0.0517261 41.1442 0.434843L45.3974 5.83095C45.7026 6.21406 45.3909 6.77251 44.9039 6.72056L42.274 6.42835C42.2091 6.42186 42.1442 6.44134 42.0922 6.48679L40.1636 8.11666C39.7805 8.44134 39.1961 8.12316 39.261 7.62316M39.261 7.62316L40.1636 0.70757Z" fill="#3328BF"></path><path d="M48.0208 7.69462H49.6442V8.34397H48.0208V9.96735H47.3715V8.34397H45.7481V7.69462H47.3715V6.07124H48.0208V7.69462Z" fill="#3328BF"></path><path fill-rule="evenodd" clip-rule="evenodd" d="M37.2481 14.9739C36.8585 15.9025 36.6572 16.9414 36.6572 18.1038C36.6572 20.318 37.3715 22.1167 38.8066 23.5128C40.2611 24.9089 42.0338 25.6038 44.1248 25.6038C46.2157 25.6038 47.9754 24.9089 49.4105 23.5128C50.865 22.1167 51.5923 20.318 51.5923 18.1038C51.5923 15.8895 50.865 14.0973 49.4105 12.7271C47.9754 11.357 46.2157 10.6687 44.1248 10.6687C42.5468 10.6687 41.1442 11.0583 39.9299 11.844L39.2092 15.6232L38.4624 15.2856C38.1248 15.1362 37.7222 15.0258 37.2481 14.9739ZM44.1248 21.9414C43.0598 21.9414 42.1702 21.5908 41.4494 20.896C40.7351 20.1817 40.3715 19.2466 40.3715 18.0973C40.3715 16.9479 40.7287 16.0908 41.4494 15.396C42.1637 14.7012 43.0598 14.3505 44.1248 14.3505C45.1897 14.3505 46.0793 14.7012 46.8001 15.396C47.5144 16.0908 47.878 16.9934 47.878 18.0973C47.878 19.2012 47.5209 20.1752 46.8001 20.896C46.0858 21.5908 45.1897 21.9414 44.1248 21.9414Z" fill="#3328BF"></path><path d="M69.7157 10.6427V5.47388H65.9429V10.6687H65.2286V14.1038H65.9429V25.6038H69.7157V14.1038H72.8001V10.6687L69.7157 10.6427Z" fill="#0D0D0D"></path><path d="M51.1377 22.3895C51.878 21.1557 52.2416 19.7206 52.2416 18.1038C52.2416 16.1492 51.7027 14.4609 50.6183 13.0843V10.6687H54.4494V18.6557C54.4494 19.7596 54.7222 20.5778 55.2611 21.1167C55.8001 21.6362 56.4559 21.896 57.2222 21.896C58.1183 21.896 58.865 21.6232 59.4689 21.0843C60.0728 20.5258 60.3715 19.6622 60.3715 18.4999V10.6687H64.1767V25.6038H60.3715V23.2336C59.9754 23.9804 59.3975 24.5648 58.6248 24.9804C57.878 25.396 57.1183 25.6038 56.352 25.6038C54.5858 25.6038 53.1832 25.0648 52.1442 23.9804C51.7222 23.5323 51.3845 22.9999 51.1377 22.3895Z" fill="#0D0D0D"></path><path d="M29.0663 23.5323V25.6038H32.8715V20.4609C32.8715 16.344 34.0858 14.2921 36.5209 14.2921C37.391 14.2921 38.1312 14.4284 38.7351 14.6947L39.391 11.2661C38.7286 10.9154 37.9235 10.7336 36.9884 10.7336C36.0533 10.7336 35.2741 11.0453 34.5273 11.6687C33.7806 12.2921 33.2286 13.2271 32.878 14.4739V10.6687H29.0728V13.1492C30.1637 14.5713 30.6962 16.305 30.6962 18.3115C30.6962 20.318 30.1637 22.1038 29.0728 23.5388L29.0663 23.5323Z" fill="#0D0D0D"></path><path fill-rule="evenodd" clip-rule="evenodd" d="M14.7611 23.9609V32.2271H18.5014V23.4024C18.8715 24.0973 19.4624 24.6362 20.2806 25.0193C21.1183 25.4089 22.0209 25.5973 22.9819 25.5973C24.9235 25.5973 26.5728 24.9154 27.9235 23.5518C29.2936 22.1687 29.9819 20.3635 29.9819 18.1492C29.9819 15.9349 29.2936 14.1882 27.9235 12.805C26.5533 11.4219 24.904 10.7271 22.9819 10.7271C22.0209 10.7271 21.1183 10.9284 20.2806 11.3375C19.4624 11.7271 18.8715 12.2661 18.5014 12.9544V10.6622H14.7611V14.1882C15.1118 14.4739 15.417 14.7856 15.6832 15.1232C16.6572 16.383 17.0923 17.805 16.9819 19.3635C16.8975 21.2401 16.1507 22.7856 14.7676 23.9544L14.7611 23.9609ZM19.6702 21.0193C18.9364 20.3245 18.5663 19.3895 18.5663 18.2076C18.5663 17.0258 18.9364 16.1102 19.6702 15.396C20.404 14.6622 21.3066 14.2986 22.3715 14.2986C23.4364 14.2986 24.3066 14.6622 25.0403 15.396C25.7741 16.1297 26.1442 17.0648 26.1442 18.2076C26.1442 19.3505 25.7741 20.2726 25.0403 20.9869C24.326 21.7012 23.4364 22.0583 22.3715 22.0583C21.3066 22.0583 20.4299 21.7141 19.6702 21.0193Z" fill="#0D0D0D"></path><path d="M0.942932 18.9869H4.92995C4.96891 19.818 5.32605 20.5323 5.98839 21.1362C6.65072 21.7206 7.53384 22.0063 8.63774 22.0063C9.6767 22.0063 10.5209 21.7661 11.1637 21.2921C11.8066 20.7921 12.1507 20.1687 12.1897 19.4219C12.2286 18.7141 12.0014 18.1232 11.5014 17.6427C11.0209 17.1622 10.2676 16.7791 9.22865 16.4869L6.5793 15.7986C2.96891 14.7466 1.16371 12.7531 1.16371 9.82453C1.16371 7.97388 1.85852 6.46739 3.25462 5.30505C4.6702 4.12323 6.38449 3.52583 8.39748 3.52583C10.4105 3.52583 12.1767 4.11674 13.5079 5.30505C14.8585 6.46739 15.5338 8.03881 15.5338 10.0128H11.5468C11.5468 9.16219 11.2546 8.48687 10.6767 7.98687C10.1183 7.46739 9.33904 7.20765 8.33904 7.20765C7.42345 7.20765 6.65722 7.44791 6.03384 7.92193C5.42995 8.37648 5.13124 8.98037 5.13124 9.72713C5.13124 10.9089 5.98189 11.7336 7.68969 12.1882L10.339 12.9674C12.5598 13.5713 14.1183 14.4544 15.0144 15.6167C15.9105 16.7791 16.3001 18.0778 16.1962 19.5128C16.1118 21.383 15.3455 22.87 13.891 23.9674C12.4559 25.0453 10.7092 25.5908 8.65722 25.5908C6.39098 25.5908 4.54033 24.9544 3.11176 23.6882C1.68319 22.4219 0.942932 20.857 0.942932 18.9869Z" fill="#0D0D0D"></path></svg>