<svg xmlns="http://www.w3.org/2000/svg" width="101" height="101" viewBox="0 0 101 101" fill="none"><rect x="2.44821" y="1.73136" width="96.9894" height="96.9894" rx="48.4947" fill="#3328BF"></rect><rect x="2.44821" y="1.73136" width="96.9894" height="96.9894" rx="48.4947" stroke="#3328BF" stroke-width="3.01056"></rect><path d="M50.943 71.0594C48.0957 71.0594 45.4048 70.5125 42.87 69.4188C40.3353 68.325 38.1218 66.832 36.2294 64.9396C34.337 63.0473 32.844 60.8337 31.7502 58.299C30.6565 55.7643 30.1096 53.0733 30.1096 50.2261C30.1096 47.3441 30.6565 44.6445 31.7502 42.1271C32.844 39.6098 34.337 37.4049 36.2294 35.5126C38.1218 33.6202 40.3353 32.1271 42.87 31.0334C45.4048 29.9396 48.0957 29.3928 50.943 29.3928C51.5332 29.3928 52.028 29.5924 52.4273 29.9917C52.8266 30.391 53.0263 30.8858 53.0263 31.4761C53.0263 32.0664 52.8266 32.5612 52.4273 32.9605C52.028 33.3598 51.5332 33.5594 50.943 33.5594C46.3249 33.5594 42.3926 35.1827 39.1461 38.4292C35.8995 41.6757 34.2763 45.608 34.2763 50.2261C34.2763 54.8441 35.8995 58.7764 39.1461 62.023C42.3926 65.2695 46.3249 66.8928 50.943 66.8928C55.561 66.8928 59.4933 65.2695 62.7398 62.023C65.9864 58.7764 67.6096 54.8441 67.6096 50.2261C67.6096 49.6358 67.8093 49.141 68.2086 48.7417C68.6079 48.3424 69.1027 48.1428 69.6929 48.1428C70.2832 48.1428 70.778 48.3424 71.1773 48.7417C71.5766 49.141 71.7763 49.6358 71.7763 50.2261C71.7763 53.0733 71.2294 55.7643 70.1357 58.299C69.0419 60.8337 67.5489 63.0473 65.6565 64.9396C63.7641 66.832 61.5593 68.325 59.0419 69.4188C56.5245 70.5125 53.8249 71.0594 50.943 71.0594Z" fill="white"></path></svg>