<svg xmlns="http://www.w3.org/2000/svg" width="37" height="37" viewBox="0 0 37 37" fill="none"><rect x="1.35202" y="0.636142" width="35.1818" height="35.1818" rx="17.5909" stroke="#0D0D0D" stroke-width="0.818182"></rect><path d="M11.7839 16.1026C11.7839 21.0647 16.1248 25.1682 18.0462 26.7414C18.3212 26.9666 18.4604 27.0805 18.6655 27.1383C18.8253 27.1832 19.0604 27.1832 19.2201 27.1383C19.4257 27.0804 19.5638 26.9676 19.8399 26.7416C21.7613 25.1683 26.102 21.0652 26.102 16.1031C26.102 14.2253 25.3478 12.4241 24.0052 11.0963C22.6626 9.76843 20.8418 9.02246 18.943 9.02246C17.0443 9.02246 15.2233 9.76854 13.8807 11.0964C12.5381 12.4242 11.7839 14.2248 11.7839 16.1026Z" stroke="#0D0D0D" stroke-width="1.63636" stroke-linecap="round" stroke-linejoin="round"></path><path d="M16.8975 15.1588C16.8975 16.2885 17.8133 17.2043 18.943 17.2043C20.0726 17.2043 20.9884 16.2885 20.9884 15.1588C20.9884 14.0292 20.0726 13.1134 18.943 13.1134C17.8133 13.1134 16.8975 14.0292 16.8975 15.1588Z" stroke="#0D0D0D" stroke-width="1.63636" stroke-linecap="round" stroke-linejoin="round"></path></svg>