<svg xmlns="http://www.w3.org/2000/svg" width="101" height="101" viewBox="0 0 101 101" fill="none"><rect x="2.44815" y="1.73136" width="96.9894" height="96.9894" rx="48.4947" fill="#3328BF"></rect><rect x="2.44815" y="1.73136" width="96.9894" height="96.9894" rx="48.4947" stroke="#3328BF" stroke-width="3.01056"></rect><path d="M50.9429 37.7261C49.797 37.7261 48.8161 37.3181 48.0002 36.5021C47.1842 35.6862 46.7762 34.7053 46.7762 33.5594C46.7762 32.4136 47.1842 31.4327 48.0002 30.6167C48.8161 29.8007 49.797 29.3928 50.9429 29.3928C52.0887 29.3928 53.0696 29.8007 53.8856 30.6167C54.7016 31.4327 55.1095 32.4136 55.1095 33.5594C55.1095 34.7053 54.7016 35.6862 53.8856 36.5021C53.0696 37.3181 52.0887 37.7261 50.9429 37.7261ZM44.6929 68.9761V43.9761H34.2762C33.6859 43.9761 33.1911 43.7764 32.7918 43.3771C32.3925 42.9778 32.1929 42.483 32.1929 41.8928C32.1929 41.3025 32.3925 40.8077 32.7918 40.4084C33.1911 40.0091 33.6859 39.8094 34.2762 39.8094H67.6095C68.1998 39.8094 68.6946 40.0091 69.0939 40.4084C69.4932 40.8077 69.6929 41.3025 69.6929 41.8928C69.6929 42.483 69.4932 42.9778 69.0939 43.3771C68.6946 43.7764 68.1998 43.9761 67.6095 43.9761H57.1929V68.9761C57.1929 69.5664 56.9932 70.0612 56.5939 70.4605C56.1946 70.8598 55.6998 71.0594 55.1095 71.0594C54.5193 71.0594 54.0245 70.8598 53.6252 70.4605C53.2259 70.0612 53.0262 69.5664 53.0262 68.9761V58.5594H48.8595V68.9761C48.8595 69.5664 48.6599 70.0612 48.2606 70.4605C47.8613 70.8598 47.3665 71.0594 46.7762 71.0594C46.1859 71.0594 45.6911 70.8598 45.2918 70.4605C44.8925 70.0612 44.6929 69.5664 44.6929 68.9761Z" fill="white"></path></svg>