<svg xmlns="http://www.w3.org/2000/svg" width="37" height="37" viewBox="0 0 37 37" fill="none"><rect x="1.35202" y="0.636142" width="35.1818" height="35.1818" rx="17.5909" stroke="#0D0D0D" stroke-width="0.818182"></rect><path d="M16.3886 10.3083C16.078 9.53168 15.3259 9.02246 14.4895 9.02246H11.6762C10.606 9.02246 9.7384 9.88983 9.7384 10.96C9.7384 20.0569 17.1131 27.4315 26.2099 27.4315C27.2801 27.4315 28.1475 26.5639 28.1475 25.4937L28.148 22.6799C28.148 21.8435 27.6389 21.0915 26.8623 20.7809L24.1659 19.7027C23.4684 19.4237 22.6742 19.5493 22.097 20.0303L21.4011 20.6107C20.5884 21.2879 19.3926 21.2341 18.6445 20.486L16.685 18.5247C15.9369 17.7766 15.8817 16.5818 16.5589 15.7691L17.1392 15.0732C17.6202 14.4961 17.7469 13.7016 17.4678 13.004L16.3886 10.3083Z" stroke="#0D0D0D" stroke-width="1.63636" stroke-linecap="round" stroke-linejoin="round"></path></svg>